<svg width="80" height="80" viewBox="0 0 80 80" fill="none" xmlns="http://www.w3.org/2000/svg">
  <!-- 背景圆 -->
  <circle cx="40" cy="40" r="38" fill="#F0F9FF" stroke="#0EA5E9" stroke-width="2"/>
  
  <!-- 数据库图标 -->
  <ellipse cx="40" cy="25" rx="15" ry="4" fill="#0EA5E9"/>
  <rect x="25" y="25" width="30" height="12" fill="#0EA5E9"/>
  <ellipse cx="40" cy="37" rx="15" ry="4" fill="#0284C7"/>
  
  <!-- 数据流线条 -->
  <path d="M25 30 Q15 35 20 45 Q25 50 35 48" stroke="#10B981" stroke-width="2" fill="none" stroke-dasharray="3,2"/>
  <path d="M55 30 Q65 35 60 45 Q55 50 45 48" stroke="#10B981" stroke-width="2" fill="none" stroke-dasharray="3,2"/>
  
  <!-- 统计图表 -->
  <rect x="30" y="50" width="4" height="8" fill="#8B5CF6"/>
  <rect x="36" y="47" width="4" height="11" fill="#8B5CF6"/>
  <rect x="42" y="52" width="4" height="6" fill="#8B5CF6"/>
  <rect x="48" y="49" width="4" height="9" fill="#8B5CF6"/>
  
  <!-- ADaM标识 -->
  <text x="40" y="68" text-anchor="middle" font-family="Arial, sans-serif" font-size="8" font-weight="bold" fill="#0EA5E9">ADaM</text>
  
  <!-- 分析符号 -->
  <circle cx="20" cy="20" r="2" fill="#F59E0B"/>
  <path d="M18 18 L22 22 M22 18 L18 22" stroke="#F59E0B" stroke-width="1.5" stroke-linecap="round"/>
  
  <!-- 医疗十字 -->
  <rect x="58" y="18" width="6" height="1.5" rx="0.5" fill="#EF4444"/>
  <rect x="60.25" y="16" width="1.5" height="6" rx="0.5" fill="#EF4444"/>
  
  <!-- 装饰数据点 -->
  <circle cx="15" cy="55" r="1.5" fill="#0EA5E9" opacity="0.4"/>
  <circle cx="65" cy="60" r="1" fill="#10B981" opacity="0.5"/>
  <circle cx="70" cy="35" r="1.2" fill="#8B5CF6" opacity="0.3"/>
</svg>