<svg width="80" height="80" viewBox="0 0 80 80" fill="none" xmlns="http://www.w3.org/2000/svg">
  <!-- 外圆环 -->
  <circle cx="40" cy="40" r="38" stroke="#E5E7EB" stroke-width="2" fill="none"/>
  <circle cx="40" cy="40" r="35" stroke="#3B82F6" stroke-width="3" fill="none" stroke-dasharray="8 4" opacity="0.6"/>
  
  <!-- 内部背景 -->
  <circle cx="40" cy="40" r="30" fill="#F8FAFC" stroke="#E2E8F0" stroke-width="1"/>
  
  <!-- AI机器人头部 -->
  <circle cx="40" cy="35" r="12" fill="#3B82F6" opacity="0.1"/>
  <circle cx="40" cy="35" r="10" fill="#3B82F6" opacity="0.2"/>
  
  <!-- 眼睛 -->
  <circle cx="36" cy="33" r="2" fill="#3B82F6"/>
  <circle cx="44" cy="33" r="2" fill="#3B82F6"/>
  
  <!-- 嘴巴 -->
  <path d="M35 38 Q40 41 45 38" stroke="#3B82F6" stroke-width="1.5" fill="none" stroke-linecap="round"/>
  
  <!-- 医疗十字 -->
  <rect x="38" y="48" width="4" height="12" rx="2" fill="#10B981"/>
  <rect x="34" y="52" width="12" height="4" rx="2" fill="#10B981"/>
  
  <!-- 装饰点 -->
  <circle cx="20" cy="20" r="2" fill="#3B82F6" opacity="0.3"/>
  <circle cx="60" cy="20" r="2" fill="#10B981" opacity="0.3"/>
  <circle cx="20" cy="60" r="2" fill="#10B981" opacity="0.3"/>
  <circle cx="60" cy="60" r="2" fill="#3B82F6" opacity="0.3"/>
  
  <!-- 连接线 -->
  <path d="M20 20 L25 25" stroke="#3B82F6" stroke-width="1" opacity="0.2"/>
  <path d="M60 20 L55 25" stroke="#10B981" stroke-width="1" opacity="0.2"/>
  <path d="M20 60 L25 55" stroke="#10B981" stroke-width="1" opacity="0.2"/>
  <path d="M60 60 L55 55" stroke="#3B82F6" stroke-width="1" opacity="0.2"/>
</svg>