<svg width="80" height="80" viewBox="0 0 80 80" fill="none" xmlns="http://www.w3.org/2000/svg">
  <!-- 背景圆 -->
  <circle cx="40" cy="40" r="38" fill="#EBF4FF" stroke="#3B82F6" stroke-width="2"/>
  
  <!-- 医生头像轮廓 -->
  <circle cx="40" cy="32" r="12" fill="#3B82F6"/>
  
  <!-- 医生帽子 -->
  <path d="M28 32 Q40 25 52 32 L50 28 Q40 22 30 28 Z" fill="#1E40AF"/>
  
  <!-- 眼睛 -->
  <circle cx="36" cy="30" r="1.5" fill="white"/>
  <circle cx="44" cy="30" r="1.5" fill="white"/>
  
  <!-- 嘴巴 -->
  <path d="M37 35 Q40 37 43 35" stroke="white" stroke-width="1" fill="none" stroke-linecap="round"/>
  
  <!-- 听诊器 -->
  <circle cx="25" cy="45" r="3" fill="#10B981" stroke="#059669" stroke-width="1"/>
  <path d="M28 45 Q35 42 40 48" stroke="#10B981" stroke-width="2" fill="none"/>
  
  <!-- 医疗十字 -->
  <rect x="50" y="45" width="8" height="2" rx="1" fill="#EF4444"/>
  <rect x="53" y="42" width="2" height="8" rx="1" fill="#EF4444"/>
  
  <!-- 男性符号 -->
  <circle cx="60" cy="25" r="4" fill="none" stroke="#3B82F6" stroke-width="2"/>
  <path d="M62 23 L67 18 M67 18 L67 23 M67 18 L62 18" stroke="#3B82F6" stroke-width="2" fill="none" stroke-linecap="round"/>
  
  <!-- 装饰元素 -->
  <circle cx="20" cy="60" r="2" fill="#3B82F6" opacity="0.3"/>
  <circle cx="65" cy="55" r="1.5" fill="#10B981" opacity="0.4"/>
</svg>