<svg width="80" height="80" viewBox="0 0 80 80" fill="none" xmlns="http://www.w3.org/2000/svg">
  <!-- 背景圆 -->
  <circle cx="40" cy="40" r="38" fill="#FDF2F8" stroke="#EC4899" stroke-width="2"/>
  
  <!-- 女性符号 -->
  <circle cx="40" cy="28" r="8" fill="none" stroke="#EC4899" stroke-width="2.5"/>
  <line x1="40" y1="36" x2="40" y2="48" stroke="#EC4899" stroke-width="2.5" stroke-linecap="round"/>
  <line x1="35" y1="43" x2="45" y2="43" stroke="#EC4899" stroke-width="2.5" stroke-linecap="round"/>
  
  <!-- 云计算图标 -->
  <path d="M20 55 Q15 50 20 45 Q25 40 35 45 Q45 40 55 45 Q60 50 55 55 Q50 60 40 55 Q30 60 20 55 Z" fill="#06B6D4" opacity="0.8"/>
  
  <!-- 数据分析波形 -->
  <path d="M22 52 L26 48 L30 54 L34 46 L38 50 L42 44 L46 52 L50 48 L54 56" stroke="white" stroke-width="2" fill="none" stroke-linecap="round"/>
  
  <!-- 心电图样式 -->
  <path d="M15 25 L18 25 L20 20 L22 30 L24 15 L26 35 L28 25 L32 25" stroke="#10B981" stroke-width="1.5" fill="none" stroke-linecap="round"/>
  
  <!-- 医疗十字 -->
  <rect x="58" y="20" width="8" height="2" rx="1" fill="#EF4444"/>
  <rect x="61" y="17" width="2" height="8" rx="1" fill="#EF4444"/>
  
  <!-- WHI标识 -->
  <text x="40" y="70" text-anchor="middle" font-family="Arial, sans-serif" font-size="7" font-weight="bold" fill="#EC4899">WHI</text>
  
  <!-- 腾讯云标识点 -->
  <circle cx="65" cy="35" r="2" fill="#06B6D4"/>
  <circle cx="68" cy="32" r="1.5" fill="#06B6D4" opacity="0.7"/>
  <circle cx="62" cy="32" r="1" fill="#06B6D4" opacity="0.5"/>
  
  <!-- 数据连接线 -->
  <path d="M25 35 Q30 30 35 35" stroke="#8B5CF6" stroke-width="1.5" fill="none" stroke-dasharray="2,1"/>
  <path d="M45 35 Q50 30 55 35" stroke="#8B5CF6" stroke-width="1.5" fill="none" stroke-dasharray="2,1"/>
  
  <!-- 装饰元素 -->
  <circle cx="15" cy="65" r="1.5" fill="#EC4899" opacity="0.4"/>
  <circle cx="70" cy="60" r="1" fill="#06B6D4" opacity="0.3"/>
</svg>